<svg width="80" height="80" viewBox="0 0 80 80" fill="none" xmlns="http://www.w3.org/2000/svg">
<path d="M7.75 33.5017H16.5V56.0017H10.25C9.91848 56.0017 9.60054 56.1334 9.36612 56.3679C9.1317 56.6023 9 56.9202 9 57.2517C9 57.5833 9.1317 57.9012 9.36612 58.1356C9.60054 58.37 9.91848 58.5017 10.25 58.5017H70.25C70.5815 58.5017 70.8995 58.37 71.1339 58.1356C71.3683 57.9012 71.5 57.5833 71.5 57.2517C71.5 56.9202 71.3683 56.6023 71.1339 56.3679C70.8995 56.1334 70.5815 56.0017 70.25 56.0017H64V33.5017H72.75C73.0226 33.5024 73.2879 33.4139 73.5055 33.2497C73.7232 33.0856 73.8812 32.8548 73.9555 32.5926C74.0298 32.3303 74.0164 32.051 73.9172 31.7971C73.8181 31.5431 73.6386 31.3286 73.4062 31.1861L40.9062 11.1861C40.709 11.0644 40.4818 11 40.25 11C40.0182 11 39.791 11.0644 39.5938 11.1861L7.09375 31.1861C6.86137 31.3286 6.68194 31.5431 6.58279 31.7971C6.48363 32.051 6.47019 32.3303 6.54452 32.5926C6.61884 32.8548 6.77685 33.0856 6.99448 33.2497C7.2121 33.4139 7.47742 33.5024 7.75 33.5017ZM19 33.5017H31.5V56.0017H19V33.5017ZM46.5 33.5017V56.0017H34V33.5017H46.5ZM61.5 56.0017H49V33.5017H61.5V56.0017ZM40.25 13.7205L68.3344 31.0017H12.1656L40.25 13.7205ZM76.5 67.2517C76.5 67.5833 76.3683 67.9012 76.1339 68.1356C75.8995 68.37 75.5815 68.5017 75.25 68.5017H5.25C4.91848 68.5017 4.60054 68.37 4.36612 68.1356C4.1317 67.9012 4 67.5833 4 67.2517C4 66.9202 4.1317 66.6023 4.36612 66.3679C4.60054 66.1334 4.91848 66.0017 5.25 66.0017H75.25C75.5815 66.0017 75.8995 66.1334 76.1339 66.3679C76.3683 66.6023 76.5 66.9202 76.5 67.2517Z" fill="#2D896A"/>
</svg>
