<svg width="80" height="80" viewBox="0 0 80 80" fill="none" xmlns="http://www.w3.org/2000/svg">
<path d="M38.75 42.5C38.75 42.8315 38.6183 43.1495 38.3839 43.3839C38.1495 43.6183 37.8315 43.75 37.5 43.75H22.5C22.1685 43.75 21.8505 43.6183 21.6161 43.3839C21.3817 43.1495 21.25 42.8315 21.25 42.5C21.25 42.1685 21.3817 41.8505 21.6161 41.6161C21.8505 41.3817 22.1685 41.25 22.5 41.25H37.5C37.8315 41.25 38.1495 41.3817 38.3839 41.6161C38.6183 41.8505 38.75 42.1685 38.75 42.5ZM37.5 31.25H22.5C22.1685 31.25 21.8505 31.3817 21.6161 31.6161C21.3817 31.8505 21.25 32.1685 21.25 32.5C21.25 32.8315 21.3817 33.1495 21.6161 33.3839C21.8505 33.6183 22.1685 33.75 22.5 33.75H37.5C37.8315 33.75 38.1495 33.6183 38.3839 33.3839C38.6183 33.1495 38.75 32.8315 38.75 32.5C38.75 32.1685 38.6183 31.8505 38.3839 31.6161C38.1495 31.3817 37.8315 31.25 37.5 31.25ZM71.25 49.9188V70C71.2503 70.2196 71.1928 70.4354 71.0832 70.6256C70.9736 70.8159 70.8159 70.974 70.6258 71.0839C70.4357 71.1938 70.22 71.2518 70.0005 71.2518C69.7809 71.2519 69.5652 71.1942 69.375 71.0844L61.25 66.4406L53.125 71.0844C52.9348 71.1942 52.7191 71.2519 52.4995 71.2518C52.28 71.2518 52.0643 71.1938 51.8742 71.0839C51.6841 70.974 51.5264 70.8159 51.4168 70.6256C51.3072 70.4354 51.2497 70.2196 51.25 70V61.25H12.5C11.5054 61.25 10.5516 60.8549 9.84835 60.1516C9.14509 59.4484 8.75 58.4946 8.75 57.5V17.5C8.75 16.5054 9.14509 15.5516 9.84835 14.8483C10.5516 14.1451 11.5054 13.75 12.5 13.75H67.5C68.4946 13.75 69.4484 14.1451 70.1516 14.8483C70.8549 15.5516 71.25 16.5054 71.25 17.5V27.5813C72.8227 28.986 74.0811 30.707 74.9426 32.6317C75.8042 34.5563 76.2495 36.6413 76.2495 38.75C76.2495 40.8587 75.8042 42.9437 74.9426 44.8683C74.0811 46.793 72.8227 48.514 71.25 49.9188ZM61.25 26.25C58.7777 26.25 56.361 26.9831 54.3054 28.3566C52.2498 29.7301 50.6476 31.6824 49.7015 33.9665C48.7554 36.2505 48.5079 38.7639 48.9902 41.1886C49.4725 43.6134 50.663 45.8407 52.4112 47.5888C54.1593 49.337 56.3866 50.5275 58.8114 51.0098C61.2361 51.4921 63.7495 51.2446 66.0335 50.2985C68.3176 49.3524 70.2699 47.7502 71.6434 45.6946C73.0169 43.639 73.75 41.2223 73.75 38.75C73.75 35.4348 72.433 32.2554 70.0888 29.9112C67.7446 27.567 64.5652 26.25 61.25 26.25ZM51.25 58.75V49.9188C48.5083 47.4382 46.7793 44.0323 46.3949 40.355C46.0106 36.6777 46.9979 32.988 49.1674 29.994C51.3369 27.0001 54.5358 24.9129 58.1499 24.1331C61.7641 23.3533 65.539 23.9358 68.75 25.7687V17.5C68.75 17.1685 68.6183 16.8505 68.3839 16.6161C68.1495 16.3817 67.8315 16.25 67.5 16.25H12.5C12.1685 16.25 11.8505 16.3817 11.6161 16.6161C11.3817 16.8505 11.25 17.1685 11.25 17.5V57.5C11.25 57.8315 11.3817 58.1495 11.6161 58.3839C11.8505 58.6183 12.1685 58.75 12.5 58.75H51.25ZM68.75 51.7312C66.4717 53.0536 63.8843 53.7501 61.25 53.7501C58.6157 53.7501 56.0283 53.0536 53.75 51.7312V67.8469L60.625 63.9156C60.815 63.8059 61.0306 63.7482 61.25 63.7482C61.4694 63.7482 61.685 63.8059 61.875 63.9156L68.75 67.8469V51.7312Z" fill="#2D896A"/>
</svg>
