<svg width="80" height="80" viewBox="0 0 80 80" fill="none" xmlns="http://www.w3.org/2000/svg">
<path d="M71.25 42.6031C70.74 48.5418 68.5444 54.2114 64.9215 58.9446C61.2986 63.6778 56.3992 67.2777 50.7997 69.3209C45.2002 71.364 39.1336 71.7653 33.3138 70.4775C27.494 69.1897 22.1631 66.2664 17.9483 62.0517C13.7335 57.8369 10.8103 52.506 9.5225 46.6862C8.23473 40.8663 8.63601 34.7998 10.6791 29.2003C12.7223 23.6008 16.3222 18.7014 21.0554 15.0785C25.7886 11.4556 31.4581 9.25997 37.3969 8.74997C37.561 8.73643 37.7262 8.75535 37.8831 8.80566C38.0399 8.85597 38.1853 8.93667 38.311 9.04317C38.4366 9.14967 38.5401 9.27987 38.6154 9.42635C38.6907 9.57282 38.7365 9.7327 38.75 9.89685C38.7635 10.061 38.7446 10.2262 38.6943 10.3831C38.644 10.5399 38.5633 10.6853 38.4568 10.8109C38.3503 10.9366 38.2201 11.04 38.0736 11.1154C37.9272 11.1907 37.7673 11.2364 37.6031 11.25C32.1387 11.7189 26.9219 13.7389 22.5666 17.0722C18.2113 20.4056 14.8987 24.9136 13.0187 30.0658C11.1386 35.2179 10.7692 40.7999 11.9541 46.1549C13.1389 51.5099 15.8286 56.4151 19.7068 60.2932C23.5849 64.1713 28.4901 66.8611 33.845 68.0459C39.2 69.2308 44.782 68.8614 49.9342 66.9813C55.0864 65.1012 59.5944 61.7887 62.9277 57.4334C66.2611 53.0781 68.2811 47.8613 68.75 42.3968C68.7635 42.2327 68.8093 42.0728 68.8846 41.9263C68.9599 41.7799 69.0634 41.6497 69.189 41.5432C69.3147 41.4367 69.4601 41.356 69.6169 41.3057C69.7738 41.2554 69.939 41.2364 70.1031 41.25C70.2673 41.2635 70.4272 41.3093 70.5736 41.3846C70.7201 41.4599 70.8503 41.5634 70.9568 41.689C71.0633 41.8147 71.144 41.9601 71.1943 42.1169C71.2446 42.2737 71.2635 42.4389 71.25 42.6031ZM40 41.25H57.5C57.8315 41.25 58.1495 41.1183 58.3839 40.8839C58.6183 40.6494 58.75 40.3315 58.75 40C58.75 39.6685 58.6183 39.3505 58.3839 39.1161C58.1495 38.8817 57.8315 38.75 57.5 38.75H41.25V22.5C41.25 22.1685 41.1183 21.8505 40.8839 21.6161C40.6495 21.3817 40.3315 21.25 40 21.25C39.6685 21.25 39.3505 21.3817 39.1161 21.6161C38.8817 21.8505 38.75 22.1685 38.75 22.5V40C38.75 40.3315 38.8817 40.6494 39.1161 40.8839C39.3505 41.1183 39.6685 41.25 40 41.25ZM50 13.75C50.4945 13.75 50.9778 13.6034 51.3889 13.3286C51.8001 13.0539 52.1205 12.6635 52.3097 12.2067C52.4989 11.7499 52.5484 11.2472 52.452 10.7622C52.3555 10.2773 52.1174 9.83184 51.7678 9.48221C51.4181 9.13258 50.9727 8.89447 50.4877 8.79801C50.0028 8.70155 49.5001 8.75106 49.0433 8.94028C48.5865 9.12949 48.196 9.44993 47.9213 9.86105C47.6466 10.2722 47.5 10.7555 47.5 11.25C47.5 11.913 47.7634 12.5489 48.2322 13.0177C48.7011 13.4866 49.337 13.75 50 13.75ZM61.25 21.25C61.7445 21.25 62.2278 21.1034 62.6389 20.8286C63.0501 20.5539 63.3705 20.1635 63.5597 19.7067C63.7489 19.2499 63.7984 18.7472 63.702 18.2622C63.6055 17.7773 63.3674 17.3318 63.0178 16.9822C62.6681 16.6326 62.2227 16.3945 61.7377 16.298C61.2528 16.2015 60.7501 16.2511 60.2933 16.4403C59.8365 16.6295 59.446 16.9499 59.1713 17.361C58.8966 17.7722 58.75 18.2555 58.75 18.75C58.75 19.413 59.0134 20.0489 59.4822 20.5177C59.9511 20.9866 60.587 21.25 61.25 21.25ZM68.75 32.5C69.2445 32.5 69.7278 32.3534 70.1389 32.0786C70.5501 31.8039 70.8705 31.4135 71.0597 30.9567C71.2489 30.4999 71.2984 29.9972 71.202 29.5122C71.1055 29.0273 70.8674 28.5818 70.5178 28.2322C70.1681 27.8826 69.7227 27.6445 69.2377 27.548C68.7528 27.4515 68.2501 27.5011 67.7933 27.6903C67.3365 27.8795 66.946 28.1999 66.6713 28.611C66.3966 29.0222 66.25 29.5055 66.25 30C66.25 30.663 66.5134 31.2989 66.9822 31.7677C67.4511 32.2366 68.087 32.5 68.75 32.5Z" fill="#2D896A"/>
</svg>
