<svg width="50" height="50" viewBox="0 0 50 50" fill="none" xmlns="http://www.w3.org/2000/svg">
<path d="M44.5308 26.6269C44.2121 30.3386 42.8398 33.8821 40.5755 36.8403C38.3112 39.7986 35.2491 42.0486 31.7494 43.3255C28.2497 44.6025 24.4581 44.8533 20.8207 44.0484C17.1833 43.2435 13.8515 41.4165 11.2173 38.7823C8.58304 36.148 6.756 32.8162 5.95114 29.1788C5.14628 25.5414 5.39708 21.7498 6.67403 18.2502C7.95099 14.7505 10.201 11.6883 13.1592 9.42403C16.1175 7.15972 19.6609 5.78746 23.3726 5.46872C23.4752 5.46025 23.5785 5.47208 23.6765 5.50352C23.7745 5.53496 23.8654 5.58541 23.9439 5.65197C24.0225 5.71853 24.0871 5.7999 24.1342 5.89145C24.1813 5.983 24.2099 6.08292 24.2183 6.18552C24.2268 6.28811 24.215 6.39137 24.1835 6.48939C24.1521 6.58742 24.1016 6.67829 24.0351 6.75682C23.9685 6.83535 23.8871 6.9 23.7956 6.94708C23.7041 6.99417 23.6041 7.02275 23.5015 7.03122C20.0863 7.32431 16.8258 8.5868 14.1037 10.6701C11.3817 12.7535 9.31129 15.571 8.13623 18.7911C6.96118 22.0112 6.73034 25.5 7.47086 28.8468C8.21139 32.1937 9.89248 35.2594 12.3163 37.6832C14.7401 40.1071 17.8059 41.7882 21.1527 42.5287C24.4996 43.2692 27.9883 43.0384 31.2085 41.8633C34.4286 40.6883 37.2461 38.6179 39.3294 35.8958C41.4128 33.1738 42.6752 29.9133 42.9683 26.498C42.9768 26.3954 43.0054 26.2955 43.0525 26.2039C43.0995 26.1124 43.1642 26.031 43.2427 25.9645C43.3213 25.8979 43.4121 25.8475 43.5102 25.816C43.6082 25.7846 43.7114 25.7728 43.814 25.7812C43.9166 25.7897 44.0165 25.8183 44.1081 25.8654C44.1996 25.9124 44.281 25.9771 44.3476 26.0556C44.4141 26.1341 44.4646 26.225 44.496 26.323C44.5275 26.4211 44.5393 26.5243 44.5308 26.6269ZM24.9996 25.7812H35.9371C36.1443 25.7812 36.343 25.6989 36.4895 25.5524C36.636 25.4059 36.7183 25.2072 36.7183 25C36.7183 24.7928 36.636 24.5941 36.4895 24.4475C36.343 24.301 36.1443 24.2187 35.9371 24.2187H25.7808V14.0625C25.7808 13.8553 25.6985 13.6566 25.552 13.51C25.4055 13.3635 25.2068 13.2812 24.9996 13.2812C24.7924 13.2812 24.5937 13.3635 24.4471 13.51C24.3006 13.6566 24.2183 13.8553 24.2183 14.0625V25C24.2183 25.2072 24.3006 25.4059 24.4471 25.5524C24.5937 25.6989 24.7924 25.7812 24.9996 25.7812ZM31.2496 8.59372C31.5586 8.59372 31.8607 8.50208 32.1177 8.33039C32.3746 8.1587 32.5749 7.91467 32.6931 7.62916C32.8114 7.34365 32.8423 7.02949 32.7821 6.72639C32.7218 6.42329 32.573 6.14488 32.3544 5.92636C32.1359 5.70784 31.8575 5.55903 31.5544 5.49874C31.2513 5.43845 30.9371 5.46939 30.6516 5.58766C30.3661 5.70592 30.1221 5.90619 29.9504 6.16314C29.7787 6.42009 29.6871 6.72219 29.6871 7.03122C29.6871 7.44562 29.8517 7.84305 30.1447 8.13607C30.4377 8.4291 30.8352 8.59372 31.2496 8.59372ZM38.2808 13.2812C38.5899 13.2812 38.892 13.1896 39.1489 13.0179C39.4059 12.8462 39.6061 12.6022 39.7244 12.3167C39.8427 12.0312 39.8736 11.717 39.8133 11.4139C39.753 11.1108 39.6042 10.8324 39.3857 10.6139C39.1672 10.3953 38.8888 10.2465 38.5857 10.1862C38.2826 10.126 37.9684 10.1569 37.6829 10.2752C37.3974 10.3934 37.1533 10.5937 36.9817 10.8506C36.81 11.1076 36.7183 11.4097 36.7183 11.7187C36.7183 12.1331 36.8829 12.5305 37.176 12.8236C37.469 13.1166 37.8664 13.2812 38.2808 13.2812ZM42.9683 20.3125C43.2774 20.3125 43.5795 20.2208 43.8364 20.0491C44.0934 19.8774 44.2936 19.6334 44.4119 19.3479C44.5302 19.0624 44.5611 18.7482 44.5008 18.4451C44.4405 18.142 44.2917 17.8636 44.0732 17.6451C43.8547 17.4266 43.5763 17.2778 43.2732 17.2175C42.9701 17.1572 42.6559 17.1881 42.3704 17.3064C42.0849 17.4247 41.8408 17.6249 41.6692 17.8819C41.4975 18.1388 41.4058 18.4409 41.4058 18.75C41.4058 19.1644 41.5704 19.5618 41.8635 19.8548C42.1565 20.1478 42.5539 20.3125 42.9683 20.3125Z" fill="#2D896A"/>
</svg>
