<svg width="65" height="65" viewBox="0 0 65 65" fill="none" xmlns="http://www.w3.org/2000/svg">
<path d="M57.8908 34.6151C57.4764 39.4403 55.6925 44.0468 52.7489 47.8925C49.8052 51.7382 45.8245 54.6632 41.2749 56.3232C36.7253 57.9833 31.7962 58.3093 27.0676 57.263C22.339 56.2167 18.0076 53.8415 14.5831 50.417C11.1586 46.9925 8.78348 42.6612 7.73716 37.9326C6.69085 33.204 7.01689 28.2749 8.67693 23.7253C10.337 19.1757 13.2619 15.1949 17.1077 12.2513C20.9534 9.30771 25.5599 7.52378 30.3851 7.10941C30.5185 7.0984 30.6527 7.11378 30.7801 7.15465C30.9076 7.19553 31.0257 7.2611 31.1278 7.34763C31.2299 7.43416 31.3139 7.53995 31.3751 7.65896C31.4363 7.77797 31.4735 7.90787 31.4845 8.04124C31.4955 8.17462 31.4801 8.30885 31.4393 8.43628C31.3984 8.56372 31.3328 8.68185 31.2463 8.78394C31.1598 8.88603 31.054 8.97008 30.935 9.03128C30.8159 9.09249 30.686 9.12965 30.5527 9.14066C26.1128 9.52167 21.8742 11.1629 18.3355 13.8712C14.7968 16.5796 12.1054 20.2423 10.5778 24.4285C9.05022 28.6146 8.75012 33.15 9.7128 37.5009C10.6755 41.8519 12.8609 45.8373 16.0119 48.9883C19.1629 52.1393 23.1483 54.3247 27.4992 55.2874C31.8502 56.25 36.3855 55.95 40.5717 54.4224C44.7578 52.8948 48.4206 50.2033 51.1289 46.6647C53.8373 43.126 55.4785 38.8873 55.8595 34.4475C55.8705 34.3141 55.9077 34.1842 55.9689 34.0652C56.0301 33.9462 56.1141 33.8404 56.2162 33.7539C56.3183 33.6674 56.4364 33.6018 56.5639 33.5609C56.6913 33.52 56.8256 33.5047 56.9589 33.5157C57.0923 33.5267 57.2222 33.5638 57.3412 33.625C57.4602 33.6862 57.566 33.7703 57.6525 33.8724C57.7391 33.9745 57.8046 34.0926 57.8455 34.22C57.8864 34.3475 57.9018 34.4817 57.8908 34.6151ZM32.5001 33.5157H46.7189C46.9882 33.5157 47.2466 33.4087 47.437 33.2182C47.6275 33.0277 47.7345 32.7694 47.7345 32.5C47.7345 32.2307 47.6275 31.9723 47.437 31.7819C47.2466 31.5914 46.9882 31.4844 46.7189 31.4844H33.5158V18.2813C33.5158 18.0119 33.4088 17.7536 33.2183 17.5631C33.0278 17.3727 32.7695 17.2657 32.5001 17.2657C32.2308 17.2657 31.9724 17.3727 31.782 17.5631C31.5915 17.7536 31.4845 18.0119 31.4845 18.2813V32.5C31.4845 32.7694 31.5915 33.0277 31.782 33.2182C31.9724 33.4087 32.2308 33.5157 32.5001 33.5157ZM40.6251 11.1719C41.0269 11.1719 41.4196 11.0528 41.7536 10.8296C42.0877 10.6064 42.348 10.2891 42.5018 9.91798C42.6555 9.54682 42.6957 9.1384 42.6174 8.74438C42.539 8.35036 42.3455 7.98842 42.0614 7.70435C41.7774 7.42027 41.4154 7.22681 41.0214 7.14844C40.6274 7.07006 40.219 7.11029 39.8478 7.26403C39.4766 7.41777 39.1594 7.67812 38.9362 8.01216C38.713 8.34619 38.5939 8.73891 38.5939 9.14066C38.5939 9.67938 38.8079 10.196 39.1888 10.577C39.5698 10.9579 40.0864 11.1719 40.6251 11.1719ZM49.7658 17.2657C50.1675 17.2657 50.5602 17.1465 50.8943 16.9233C51.2283 16.7001 51.4887 16.3829 51.6424 16.0117C51.7961 15.6406 51.8364 15.2322 51.758 14.8381C51.6796 14.4441 51.4861 14.0822 51.2021 13.7981C50.918 13.514 50.5561 13.3206 50.162 13.2422C49.768 13.1638 49.3596 13.204 48.9884 13.3578C48.6173 13.5115 48.3 13.7719 48.0768 14.1059C47.8536 14.4399 47.7345 14.8327 47.7345 15.2344C47.7345 15.7731 47.9485 16.2898 48.3294 16.6707C48.7104 17.0517 49.227 17.2657 49.7658 17.2657ZM55.8595 26.4063C56.2613 26.4063 56.654 26.2872 56.988 26.064C57.322 25.8408 57.5824 25.5235 57.7361 25.1524C57.8899 24.7812 57.9301 24.3728 57.8517 23.9788C57.7734 23.5847 57.5799 23.2228 57.2958 22.9387C57.0117 22.6546 56.6498 22.4612 56.2558 22.3828C55.8618 22.3044 55.4533 22.3447 55.0822 22.4984C54.711 22.6521 54.3938 22.9125 54.1706 23.2465C53.9474 23.5806 53.8283 23.9733 53.8283 24.375C53.8283 24.9138 54.0423 25.4304 54.4232 25.8113C54.8041 26.1923 55.3208 26.4063 55.8595 26.4063Z" fill="#2D896A"/>
</svg>
