<svg width="80" height="80" viewBox="0 0 80 80" fill="none" xmlns="http://www.w3.org/2000/svg">
<path d="M75 26.25H33.2719L26.1188 11.9406C26.0148 11.733 25.8551 11.5583 25.6575 11.4363C25.4599 11.3144 25.2322 11.2498 25 11.25H15C14.6685 11.25 14.3505 11.3817 14.1161 11.6161C13.8817 11.8505 13.75 12.1685 13.75 12.5V26.25H7.5C7.16848 26.25 6.85054 26.3817 6.61612 26.6161C6.3817 26.8505 6.25 27.1685 6.25 27.5C6.25 27.8315 6.3817 28.1495 6.61612 28.3839C6.85054 28.6183 7.16848 28.75 7.5 28.75H13.75V66.25H7.5C7.16848 66.25 6.85054 66.3817 6.61612 66.6161C6.3817 66.8505 6.25 67.1685 6.25 67.5C6.25 67.8315 6.3817 68.1495 6.61612 68.3839C6.85054 68.6183 7.16848 68.75 7.5 68.75H40C40.3315 68.75 40.6495 68.6183 40.8839 68.3839C41.1183 68.1495 41.25 67.8315 41.25 67.5C41.25 67.1685 41.1183 66.8505 40.8839 66.6161C40.6495 66.3817 40.3315 66.25 40 66.25H33.75V28.75H66.25V57.5C66.25 57.8315 66.1183 58.1495 65.8839 58.3839C65.6495 58.6183 65.3315 58.75 65 58.75H60C59.6685 58.75 59.3505 58.6183 59.1161 58.3839C58.8817 58.1495 58.75 57.8315 58.75 57.5V55C58.75 54.6685 58.6183 54.3505 58.3839 54.1161C58.1495 53.8817 57.8315 53.75 57.5 53.75C57.1685 53.75 56.8505 53.8817 56.6161 54.1161C56.3817 54.3505 56.25 54.6685 56.25 55V57.5C56.25 58.4946 56.6451 59.4484 57.3484 60.1516C58.0516 60.8549 59.0054 61.25 60 61.25H65C65.9946 61.25 66.9484 60.8549 67.6516 60.1516C68.3549 59.4484 68.75 58.4946 68.75 57.5V28.75H75C75.3315 28.75 75.6495 28.6183 75.8839 28.3839C76.1183 28.1495 76.25 27.8315 76.25 27.5C76.25 27.1685 76.1183 26.8505 75.8839 26.6161C75.6495 26.3817 75.3315 26.25 75 26.25ZM16.25 13.75H24.2281L30.4781 26.25H16.25V13.75ZM16.25 66.25V48.75H31.25V66.25H16.25ZM31.25 46.25H16.25V28.75H31.25V46.25Z" fill="#2D896A"/>
</svg>
