<svg width="50" height="50" viewBox="0 0 50 50" fill="none" xmlns="http://www.w3.org/2000/svg">
<path d="M46.875 16.4062H20.7949L16.3242 7.46289C16.2593 7.33309 16.1594 7.22396 16.0359 7.14772C15.9124 7.07148 15.7701 7.03115 15.625 7.03125H9.375C9.1678 7.03125 8.96909 7.11356 8.82257 7.26007C8.67606 7.40659 8.59375 7.6053 8.59375 7.8125V16.4062H4.6875C4.4803 16.4062 4.28159 16.4886 4.13507 16.6351C3.98856 16.7816 3.90625 16.9803 3.90625 17.1875C3.90625 17.3947 3.98856 17.5934 4.13507 17.7399C4.28159 17.8864 4.4803 17.9688 4.6875 17.9688H8.59375V41.4062H4.6875C4.4803 41.4062 4.28159 41.4886 4.13507 41.6351C3.98856 41.7816 3.90625 41.9803 3.90625 42.1875C3.90625 42.3947 3.98856 42.5934 4.13507 42.7399C4.28159 42.8864 4.4803 42.9688 4.6875 42.9688H25C25.2072 42.9688 25.4059 42.8864 25.5524 42.7399C25.6989 42.5934 25.7812 42.3947 25.7812 42.1875C25.7812 41.9803 25.6989 41.7816 25.5524 41.6351C25.4059 41.4886 25.2072 41.4062 25 41.4062H21.0938V17.9688H41.4062V35.9375C41.4062 36.1447 41.3239 36.3434 41.1774 36.4899C41.0309 36.6364 40.8322 36.7188 40.625 36.7188H37.5C37.2928 36.7188 37.0941 36.6364 36.9476 36.4899C36.8011 36.3434 36.7188 36.1447 36.7188 35.9375V34.375C36.7188 34.1678 36.6364 33.9691 36.4899 33.8226C36.3434 33.6761 36.1447 33.5938 35.9375 33.5938C35.7303 33.5938 35.5316 33.6761 35.3851 33.8226C35.2386 33.9691 35.1562 34.1678 35.1562 34.375V35.9375C35.1562 36.5591 35.4032 37.1552 35.8427 37.5948C36.2823 38.0343 36.8784 38.2812 37.5 38.2812H40.625C41.2466 38.2812 41.8427 38.0343 42.2823 37.5948C42.7218 37.1552 42.9688 36.5591 42.9688 35.9375V17.9688H46.875C47.0822 17.9688 47.2809 17.8864 47.4274 17.7399C47.5739 17.5934 47.6562 17.3947 47.6562 17.1875C47.6562 16.9803 47.5739 16.7816 47.4274 16.6351C47.2809 16.4886 47.0822 16.4062 46.875 16.4062ZM10.1562 8.59375H15.1426L19.0488 16.4062H10.1562V8.59375ZM10.1562 41.4062V30.4688H19.5312V41.4062H10.1562ZM19.5312 28.9062H10.1562V17.9688H19.5312V28.9062Z" fill="#2D896A"/>
</svg>
