<svg width="65" height="65" viewBox="0 0 65 65" fill="none" xmlns="http://www.w3.org/2000/svg">
<path d="M60.9375 21.3282H27.0334L21.2215 9.70188C21.1371 9.53314 21.0073 9.39127 20.8467 9.29215C20.6862 9.19304 20.5012 9.14061 20.3125 9.14075H12.1875C11.9181 9.14075 11.6598 9.24775 11.4693 9.43822C11.2789 9.62868 11.1719 9.88701 11.1719 10.1564V21.3282H6.09375C5.82439 21.3282 5.56606 21.4352 5.37559 21.6257C5.18513 21.8162 5.07812 22.0745 5.07812 22.3439C5.07812 22.6132 5.18513 22.8716 5.37559 23.062C5.56606 23.2525 5.82439 23.3595 6.09375 23.3595H11.1719V53.8282H6.09375C5.82439 53.8282 5.56606 53.9352 5.37559 54.1257C5.18513 54.3162 5.07812 54.5745 5.07812 54.8439C5.07812 55.1132 5.18513 55.3716 5.37559 55.562C5.56606 55.7525 5.82439 55.8595 6.09375 55.8595H32.5C32.7694 55.8595 33.0277 55.7525 33.2182 55.562C33.4086 55.3716 33.5156 55.1132 33.5156 54.8439C33.5156 54.5745 33.4086 54.3162 33.2182 54.1257C33.0277 53.9352 32.7694 53.8282 32.5 53.8282H27.4219V23.3595H53.8281V46.7189C53.8281 46.9882 53.7211 47.2466 53.5307 47.437C53.3402 47.6275 53.0819 47.7345 52.8125 47.7345H48.75C48.4806 47.7345 48.2223 47.6275 48.0318 47.437C47.8414 47.2466 47.7344 46.9882 47.7344 46.7189V44.6876C47.7344 44.4183 47.6274 44.1599 47.4369 43.9695C47.2464 43.779 46.9881 43.672 46.7188 43.672C46.4494 43.672 46.1911 43.779 46.0006 43.9695C45.8101 44.1599 45.7031 44.4183 45.7031 44.6876V46.7189C45.7031 47.527 46.0241 48.3019 46.5955 48.8733C47.1669 49.4447 47.9419 49.7657 48.75 49.7657H52.8125C53.6206 49.7657 54.3956 49.4447 54.967 48.8733C55.5384 48.3019 55.8594 47.527 55.8594 46.7189V23.3595H60.9375C61.2069 23.3595 61.4652 23.2525 61.6557 23.062C61.8461 22.8716 61.9531 22.6132 61.9531 22.3439C61.9531 22.0745 61.8461 21.8162 61.6557 21.6257C61.4652 21.4352 61.2069 21.3282 60.9375 21.3282ZM13.2031 11.172H19.6854L24.7635 21.3282H13.2031V11.172ZM13.2031 53.8282V39.6095H25.3906V53.8282H13.2031ZM25.3906 37.5782H13.2031V23.3595H25.3906V37.5782Z" fill="#2D896A"/>
</svg>
