<svg width="27" height="27" viewBox="0 0 27 27" fill="none" xmlns="http://www.w3.org/2000/svg">
<path d="M15.75 13.5L11.8125 15.75V11.25L15.75 13.5Z" fill="white" stroke="white" stroke-width="1.3" stroke-linecap="round" stroke-linejoin="round"/>
<path d="M2.25 14.2965V12.7035C2.25 9.44658 2.25 7.81758 3.26812 6.7702C4.28737 5.7217 5.89163 5.6767 9.099 5.58558C10.6178 5.54283 12.1702 5.51245 13.5 5.51245C14.8298 5.51245 16.3811 5.54283 17.901 5.58558C21.1084 5.6767 22.7126 5.7217 23.7307 6.7702C24.7489 7.8187 24.75 9.4477 24.75 12.7035V14.2953C24.75 17.5533 24.75 19.1812 23.7319 20.2297C22.7126 21.2771 21.1095 21.3232 17.901 21.4132C16.3822 21.4571 14.8298 21.4875 13.5 21.4875C12.1702 21.4875 10.6189 21.4571 9.099 21.4132C5.89163 21.3232 4.28737 21.2782 3.26812 20.2297C2.24887 19.1812 2.25 17.5522 2.25 14.2965Z" stroke="white" stroke-width="1.3"/>
</svg>
