<svg width="16" height="16" viewBox="0 0 16 16" fill="none" xmlns="http://www.w3.org/2000/svg">
<path d="M12.375 8.5C12.375 8.59946 12.3355 8.69484 12.2652 8.76517C12.1948 8.83549 12.0995 8.875 12 8.875H4C3.90054 8.875 3.80516 8.83549 3.73483 8.76517C3.66451 8.69484 3.625 8.59946 3.625 8.5C3.625 8.40054 3.66451 8.30516 3.73483 8.23483C3.80516 8.16451 3.90054 8.125 4 8.125H12C12.0995 8.125 12.1948 8.16451 12.2652 8.23483C12.3355 8.30516 12.375 8.40054 12.375 8.5ZM14.5 5.125H1.5C1.40054 5.125 1.30516 5.16451 1.23483 5.23484C1.16451 5.30516 1.125 5.40054 1.125 5.5C1.125 5.59946 1.16451 5.69484 1.23483 5.76516C1.30516 5.83549 1.40054 5.875 1.5 5.875H14.5C14.5995 5.875 14.6948 5.83549 14.7652 5.76516C14.8355 5.69484 14.875 5.59946 14.875 5.5C14.875 5.40054 14.8355 5.30516 14.7652 5.23484C14.6948 5.16451 14.5995 5.125 14.5 5.125ZM9.5 11.125H6.5C6.40054 11.125 6.30516 11.1645 6.23484 11.2348C6.16451 11.3052 6.125 11.4005 6.125 11.5C6.125 11.5995 6.16451 11.6948 6.23484 11.7652C6.30516 11.8355 6.40054 11.875 6.5 11.875H9.5C9.59946 11.875 9.69484 11.8355 9.76517 11.7652C9.83549 11.6948 9.875 11.5995 9.875 11.5C9.875 11.4005 9.83549 11.3052 9.76517 11.2348C9.69484 11.1645 9.59946 11.125 9.5 11.125Z" fill="#0C0605"/>
</svg>
