<svg width="27" height="27" viewBox="0 0 27 27" fill="none" xmlns="http://www.w3.org/2000/svg">
<path d="M13.5 18C14.6935 18 15.8381 17.5259 16.682 16.682C17.5259 15.8381 18 14.6935 18 13.5C18 12.3065 17.5259 11.1619 16.682 10.318C15.8381 9.47411 14.6935 9 13.5 9C12.3065 9 11.1619 9.47411 10.318 10.318C9.47411 11.1619 9 12.3065 9 13.5C9 14.6935 9.47411 15.8381 10.318 16.682C11.1619 17.5259 12.3065 18 13.5 18Z" stroke="#2AA87E" stroke-width="1.3" stroke-linecap="round" stroke-linejoin="round"/>
<path d="M3.375 18V9C3.375 7.50816 3.96763 6.07742 5.02252 5.02252C6.07742 3.96763 7.50816 3.375 9 3.375H18C19.4918 3.375 20.9226 3.96763 21.9775 5.02252C23.0324 6.07742 23.625 7.50816 23.625 9V18C23.625 19.4918 23.0324 20.9226 21.9775 21.9775C20.9226 23.0324 19.4918 23.625 18 23.625H9C7.50816 23.625 6.07742 23.0324 5.02252 21.9775C3.96763 20.9226 3.375 19.4918 3.375 18Z" stroke="#2AA87E" stroke-width="1.3"/>
<path d="M19.6875 7.3239L19.6988 7.31152" stroke="#2AA87E" stroke-width="1.3" stroke-linecap="round" stroke-linejoin="round"/>
</svg>
