<svg width="80" height="80" viewBox="0 0 80 80" fill="none" xmlns="http://www.w3.org/2000/svg">
<path d="M56 34.75C56 35.0815 55.8683 35.3995 55.6339 35.6339C55.3995 35.8683 55.0815 36 54.75 36H34.75C34.4185 36 34.1005 35.8683 33.8661 35.6339C33.6317 35.3995 33.5 35.0815 33.5 34.75C33.5 34.4185 33.6317 34.1005 33.8661 33.8661C34.1005 33.6317 34.4185 33.5 34.75 33.5H54.75C55.0815 33.5 55.3995 33.6317 55.6339 33.8661C55.8683 34.1005 56 34.4185 56 34.75ZM54.75 43.5H34.75C34.4185 43.5 34.1005 43.6317 33.8661 43.8661C33.6317 44.1005 33.5 44.4185 33.5 44.75C33.5 45.0815 33.6317 45.3995 33.8661 45.6339C34.1005 45.8683 34.4185 46 34.75 46H54.75C55.0815 46 55.3995 45.8683 55.6339 45.6339C55.8683 45.3995 56 45.0815 56 44.75C56 44.4185 55.8683 44.1005 55.6339 43.8661C55.3995 43.6317 55.0815 43.5 54.75 43.5ZM68.5 14.75V64.75C68.5 65.7446 68.1049 66.6984 67.4016 67.4016C66.6984 68.1049 65.7446 68.5 64.75 68.5H14.75C13.7554 68.5 12.8016 68.1049 12.0983 67.4016C11.3951 66.6984 11 65.7446 11 64.75V14.75C11 13.7554 11.3951 12.8016 12.0983 12.0983C12.8016 11.3951 13.7554 11 14.75 11H64.75C65.7446 11 66.6984 11.3951 67.4016 12.0983C68.1049 12.8016 68.5 13.7554 68.5 14.75ZM14.75 66H23.5V13.5H14.75C14.4185 13.5 14.1005 13.6317 13.8661 13.8661C13.6317 14.1005 13.5 14.4185 13.5 14.75V64.75C13.5 65.0815 13.6317 65.3995 13.8661 65.6339C14.1005 65.8683 14.4185 66 14.75 66ZM66 14.75C66 14.4185 65.8683 14.1005 65.6339 13.8661C65.3995 13.6317 65.0815 13.5 64.75 13.5H26V66H64.75C65.0815 66 65.3995 65.8683 65.6339 65.6339C65.8683 65.3995 66 65.0815 66 64.75V14.75Z" fill="#2D896A"/>
</svg>
