<svg width="65" height="65" viewBox="0 0 65 65" fill="none" xmlns="http://www.w3.org/2000/svg">
<path d="M31.4844 34.5314C31.4844 34.8007 31.3774 35.0591 31.1869 35.2495C30.9964 35.44 30.7381 35.547 30.4688 35.547H18.2812C18.0119 35.547 17.7536 35.44 17.5631 35.2495C17.3726 35.0591 17.2656 34.8007 17.2656 34.5314C17.2656 34.262 17.3726 34.0037 17.5631 33.8132C17.7536 33.6228 18.0119 33.5157 18.2812 33.5157H30.4688C30.7381 33.5157 30.9964 33.6228 31.1869 33.8132C31.3774 34.0037 31.4844 34.262 31.4844 34.5314ZM30.4688 25.3907H18.2812C18.0119 25.3907 17.7536 25.4978 17.5631 25.6882C17.3726 25.8787 17.2656 26.137 17.2656 26.4064C17.2656 26.6757 17.3726 26.9341 17.5631 27.1245C17.7536 27.315 18.0119 27.422 18.2812 27.422H30.4688C30.7381 27.422 30.9964 27.315 31.1869 27.1245C31.3774 26.9341 31.4844 26.6757 31.4844 26.4064C31.4844 26.137 31.3774 25.8787 31.1869 25.6882C30.9964 25.4978 30.7381 25.3907 30.4688 25.3907ZM57.8906 40.5591V56.8751C57.8909 57.0535 57.8442 57.2289 57.7551 57.3835C57.6661 57.5381 57.5379 57.6665 57.3835 57.7558C57.229 57.8451 57.0538 57.8922 56.8754 57.8923C56.697 57.8923 56.5217 57.8454 56.3672 57.7562L49.7656 53.9831L43.1641 57.7562C43.0096 57.8454 42.8343 57.8923 42.6559 57.8923C42.4775 57.8922 42.3022 57.8451 42.1478 57.7558C41.9933 57.6665 41.8652 57.5381 41.7761 57.3835C41.6871 57.2289 41.6404 57.0535 41.6406 56.8751V49.7658H10.1562C9.34817 49.7658 8.57318 49.4447 8.00178 48.8733C7.43038 48.3019 7.10938 47.527 7.10938 46.7189V14.2189C7.10938 13.4108 7.43038 12.6358 8.00178 12.0644C8.57318 11.493 9.34817 11.172 10.1562 11.172H54.8438C55.6518 11.172 56.4268 11.493 56.9982 12.0644C57.5696 12.6358 57.8906 13.4108 57.8906 14.2189V22.4099C59.1685 23.5512 60.1909 24.9495 60.8909 26.5133C61.5909 28.0772 61.9528 29.7712 61.9528 31.4845C61.9528 33.1978 61.5909 34.8918 60.8909 36.4557C60.1909 38.0195 59.1685 39.4178 57.8906 40.5591ZM49.7656 21.3282C47.7569 21.3282 45.7933 21.9239 44.1231 23.0399C42.4529 24.1559 41.1512 25.7421 40.3825 27.5979C39.6138 29.4537 39.4126 31.4958 39.8045 33.4659C40.1964 35.436 41.1637 37.2457 42.5841 38.6661C44.0044 40.0864 45.8141 41.0537 47.7842 41.4456C49.7544 41.8375 51.7964 41.6364 53.6523 40.8677C55.5081 40.0989 57.0943 38.7972 58.2102 37.127C59.3262 35.4568 59.9219 33.4932 59.9219 31.4845C59.9219 28.7909 58.8518 26.2076 56.9472 24.3029C55.0425 22.3983 52.4592 21.3282 49.7656 21.3282ZM41.6406 47.7345V40.5591C39.413 38.5436 38.0082 35.7764 37.6959 32.7886C37.3836 29.8008 38.1858 26.8029 39.9485 24.3703C41.7113 21.9377 44.3103 20.2419 47.2468 19.6083C50.1833 18.9747 53.2504 19.4479 55.8594 20.9372V14.2189C55.8594 13.9495 55.7524 13.6912 55.5619 13.5007C55.3714 13.3103 55.1131 13.2032 54.8438 13.2032H10.1562C9.88689 13.2032 9.62856 13.3103 9.43809 13.5007C9.24763 13.6912 9.14062 13.9495 9.14062 14.2189V46.7189C9.14062 46.9882 9.24763 47.2466 9.43809 47.437C9.62856 47.6275 9.88689 47.7345 10.1562 47.7345H41.6406ZM55.8594 42.0318C54.0083 43.1062 51.906 43.6721 49.7656 43.6721C47.6253 43.6721 45.523 43.1062 43.6719 42.0318V55.1257L49.2578 51.9316C49.4122 51.8424 49.5873 51.7955 49.7656 51.7955C49.9439 51.7955 50.119 51.8424 50.2734 51.9316L55.8594 55.1257V42.0318Z" fill="#2D896A"/>
</svg>
