<svg width="65" height="65" viewBox="0 0 65 65" fill="none" xmlns="http://www.w3.org/2000/svg">
<path d="M56.875 17.2657H43.6719V14.2189C43.6719 12.8721 43.1369 11.5804 42.1845 10.6281C41.2322 9.67576 39.9406 9.14075 38.5938 9.14075H26.4062C25.0594 9.14075 23.7678 9.67576 22.8155 10.6281C21.8631 11.5804 21.3281 12.8721 21.3281 14.2189V17.2657H8.125C7.31692 17.2657 6.54193 17.5868 5.97053 18.1582C5.39913 18.7296 5.07812 19.5045 5.07812 20.3126V48.7501C5.07812 49.5582 5.39913 50.3332 5.97053 50.9046C6.54193 51.476 7.31692 51.797 8.125 51.797H56.875C57.6831 51.797 58.4581 51.476 59.0295 50.9046C59.6009 50.3332 59.9219 49.5582 59.9219 48.7501V20.3126C59.9219 19.5045 59.6009 18.7296 59.0295 18.1582C58.4581 17.5868 57.6831 17.2657 56.875 17.2657ZM23.3594 14.2189C23.3594 13.4108 23.6804 12.6358 24.2518 12.0644C24.8232 11.493 25.5982 11.172 26.4062 11.172H38.5938C39.4018 11.172 40.1768 11.493 40.7482 12.0644C41.3196 12.6358 41.6406 13.4108 41.6406 14.2189V17.2657H23.3594V14.2189ZM8.125 19.297H56.875C57.1444 19.297 57.4027 19.404 57.5932 19.5945C57.7836 19.7849 57.8906 20.0433 57.8906 20.3126V29.4532H47.7344V26.4064C47.7344 26.137 47.6274 25.8787 47.4369 25.6882C47.2464 25.4977 46.9881 25.3907 46.7188 25.3907C46.4494 25.3907 46.1911 25.4977 46.0006 25.6882C45.8101 25.8787 45.7031 26.137 45.7031 26.4064V29.4532H19.2969V26.4064C19.2969 26.137 19.1899 25.8787 18.9994 25.6882C18.8089 25.4977 18.5506 25.3907 18.2812 25.3907C18.0119 25.3907 17.7536 25.4977 17.5631 25.6882C17.3726 25.8787 17.2656 26.137 17.2656 26.4064V29.4532H7.10938V20.3126C7.10938 20.0433 7.21638 19.7849 7.40684 19.5945C7.59731 19.404 7.85564 19.297 8.125 19.297ZM56.875 49.7657H8.125C7.85564 49.7657 7.59731 49.6587 7.40684 49.4683C7.21638 49.2778 7.10938 49.0195 7.10938 48.7501V31.4845H17.2656V34.5314C17.2656 34.8007 17.3726 35.0591 17.5631 35.2495C17.7536 35.44 18.0119 35.547 18.2812 35.547C18.5506 35.547 18.8089 35.44 18.9994 35.2495C19.1899 35.0591 19.2969 34.8007 19.2969 34.5314V31.4845H45.7031V34.5314C45.7031 34.8007 45.8101 35.0591 46.0006 35.2495C46.1911 35.44 46.4494 35.547 46.7188 35.547C46.9881 35.547 47.2464 35.44 47.4369 35.2495C47.6274 35.0591 47.7344 34.8007 47.7344 34.5314V31.4845H57.8906V48.7501C57.8906 49.0195 57.7836 49.2778 57.5932 49.4683C57.4027 49.6587 57.1444 49.7657 56.875 49.7657Z" fill="#2D896A"/>
</svg>
