<svg width="50" height="50" viewBox="0 0 50 50" fill="none" xmlns="http://www.w3.org/2000/svg">
<path d="M43.75 13.2812H33.5938V10.9375C33.5938 9.9015 33.1822 8.90793 32.4496 8.17536C31.7171 7.4428 30.7235 7.03125 29.6875 7.03125H20.3125C19.2765 7.03125 18.2829 7.4428 17.5504 8.17536C16.8178 8.90793 16.4062 9.9015 16.4062 10.9375V13.2812H6.25C5.6284 13.2812 5.03226 13.5282 4.59272 13.9677C4.15318 14.4073 3.90625 15.0034 3.90625 15.625V37.5C3.90625 38.1216 4.15318 38.7177 4.59272 39.1573C5.03226 39.5968 5.6284 39.8438 6.25 39.8438H43.75C44.3716 39.8438 44.9677 39.5968 45.4073 39.1573C45.8468 38.7177 46.0938 38.1216 46.0938 37.5V15.625C46.0938 15.0034 45.8468 14.4073 45.4073 13.9677C44.9677 13.5282 44.3716 13.2812 43.75 13.2812ZM17.9688 10.9375C17.9688 10.3159 18.2157 9.71976 18.6552 9.28022C19.0948 8.84068 19.6909 8.59375 20.3125 8.59375H29.6875C30.3091 8.59375 30.9052 8.84068 31.3448 9.28022C31.7843 9.71976 32.0312 10.3159 32.0312 10.9375V13.2812H17.9688V10.9375ZM6.25 14.8438H43.75C43.9572 14.8438 44.1559 14.9261 44.3024 15.0726C44.4489 15.2191 44.5312 15.4178 44.5312 15.625V22.6562H36.7188V20.3125C36.7188 20.1053 36.6364 19.9066 36.4899 19.7601C36.3434 19.6136 36.1447 19.5312 35.9375 19.5312C35.7303 19.5312 35.5316 19.6136 35.3851 19.7601C35.2386 19.9066 35.1562 20.1053 35.1562 20.3125V22.6562H14.8438V20.3125C14.8438 20.1053 14.7614 19.9066 14.6149 19.7601C14.4684 19.6136 14.2697 19.5312 14.0625 19.5312C13.8553 19.5312 13.6566 19.6136 13.5101 19.7601C13.3636 19.9066 13.2812 20.1053 13.2812 20.3125V22.6562H5.46875V15.625C5.46875 15.4178 5.55106 15.2191 5.69757 15.0726C5.84409 14.9261 6.0428 14.8438 6.25 14.8438ZM43.75 38.2812H6.25C6.0428 38.2812 5.84409 38.1989 5.69757 38.0524C5.55106 37.9059 5.46875 37.7072 5.46875 37.5V24.2188H13.2812V26.5625C13.2812 26.7697 13.3636 26.9684 13.5101 27.1149C13.6566 27.2614 13.8553 27.3438 14.0625 27.3438C14.2697 27.3438 14.4684 27.2614 14.6149 27.1149C14.7614 26.9684 14.8438 26.7697 14.8438 26.5625V24.2188H35.1562V26.5625C35.1562 26.7697 35.2386 26.9684 35.3851 27.1149C35.5316 27.2614 35.7303 27.3438 35.9375 27.3438C36.1447 27.3438 36.3434 27.2614 36.4899 27.1149C36.6364 26.9684 36.7188 26.7697 36.7188 26.5625V24.2188H44.5312V37.5C44.5312 37.7072 44.4489 37.9059 44.3024 38.0524C44.1559 38.1989 43.9572 38.2812 43.75 38.2812Z" fill="#2D896A"/>
</svg>
