<svg width="80" height="80" viewBox="0 0 80 80" fill="none" xmlns="http://www.w3.org/2000/svg">
<path d="M70 21.25H53.75V17.5C53.75 15.8424 53.0915 14.2527 51.9194 13.0806C50.7473 11.9085 49.1576 11.25 47.5 11.25H32.5C30.8424 11.25 29.2527 11.9085 28.0806 13.0806C26.9085 14.2527 26.25 15.8424 26.25 17.5V21.25H10C9.00544 21.25 8.05161 21.6451 7.34835 22.3483C6.64509 23.0516 6.25 24.0054 6.25 25V60C6.25 60.9946 6.64509 61.9484 7.34835 62.6516C8.05161 63.3549 9.00544 63.75 10 63.75H70C70.9946 63.75 71.9484 63.3549 72.6516 62.6516C73.3549 61.9484 73.75 60.9946 73.75 60V25C73.75 24.0054 73.3549 23.0516 72.6516 22.3483C71.9484 21.6451 70.9946 21.25 70 21.25ZM28.75 17.5C28.75 16.5054 29.1451 15.5516 29.8483 14.8483C30.5516 14.1451 31.5054 13.75 32.5 13.75H47.5C48.4946 13.75 49.4484 14.1451 50.1516 14.8483C50.8549 15.5516 51.25 16.5054 51.25 17.5V21.25H28.75V17.5ZM10 23.75H70C70.3315 23.75 70.6495 23.8817 70.8839 24.1161C71.1183 24.3505 71.25 24.6685 71.25 25V36.25H58.75V32.5C58.75 32.1685 58.6183 31.8505 58.3839 31.6161C58.1495 31.3817 57.8315 31.25 57.5 31.25C57.1685 31.25 56.8505 31.3817 56.6161 31.6161C56.3817 31.8505 56.25 32.1685 56.25 32.5V36.25H23.75V32.5C23.75 32.1685 23.6183 31.8505 23.3839 31.6161C23.1495 31.3817 22.8315 31.25 22.5 31.25C22.1685 31.25 21.8505 31.3817 21.6161 31.6161C21.3817 31.8505 21.25 32.1685 21.25 32.5V36.25H8.75V25C8.75 24.6685 8.8817 24.3505 9.11612 24.1161C9.35054 23.8817 9.66848 23.75 10 23.75ZM70 61.25H10C9.66848 61.25 9.35054 61.1183 9.11612 60.8839C8.8817 60.6495 8.75 60.3315 8.75 60V38.75H21.25V42.5C21.25 42.8315 21.3817 43.1495 21.6161 43.3839C21.8505 43.6183 22.1685 43.75 22.5 43.75C22.8315 43.75 23.1495 43.6183 23.3839 43.3839C23.6183 43.1495 23.75 42.8315 23.75 42.5V38.75H56.25V42.5C56.25 42.8315 56.3817 43.1495 56.6161 43.3839C56.8505 43.6183 57.1685 43.75 57.5 43.75C57.8315 43.75 58.1495 43.6183 58.3839 43.3839C58.6183 43.1495 58.75 42.8315 58.75 42.5V38.75H71.25V60C71.25 60.3315 71.1183 60.6495 70.8839 60.8839C70.6495 61.1183 70.3315 61.25 70 61.25Z" fill="#2D896A"/>
</svg>
