<svg width="27" height="27" viewBox="0 0 27 27" fill="none" xmlns="http://www.w3.org/2000/svg">
<path d="M15.75 13.5L11.8125 15.75V11.25L15.75 13.5Z" fill="#2AA87E" stroke="#2AA87E" stroke-width="1.3" stroke-linecap="round" stroke-linejoin="round"/>
<path d="M2.25 14.2967V12.7037C2.25 9.44682 2.25 7.81782 3.26812 6.77045C4.28737 5.72195 5.89163 5.67695 9.099 5.58582C10.6178 5.54307 12.1702 5.5127 13.5 5.5127C14.8298 5.5127 16.3811 5.54307 17.901 5.58582C21.1084 5.67695 22.7126 5.72195 23.7307 6.77045C24.7489 7.81895 24.75 9.44794 24.75 12.7037V14.2956C24.75 17.5536 24.75 19.1814 23.7319 20.2299C22.7126 21.2773 21.1095 21.3234 17.901 21.4134C16.3822 21.4573 14.8298 21.4877 13.5 21.4877C12.1702 21.4877 10.6189 21.4573 9.099 21.4134C5.89163 21.3234 4.28737 21.2784 3.26812 20.2299C2.24887 19.1814 2.25 17.5524 2.25 14.2967Z" stroke="#2AA87E" stroke-width="1.3"/>
</svg>
