<svg width="27" height="27" viewBox="0 0 27 27" fill="none" xmlns="http://www.w3.org/2000/svg">
<path d="M15.75 13.5L11.8125 15.75V11.25L15.75 13.5Z" fill="#CD7208" stroke="#CD7208" stroke-width="1.3" stroke-linecap="round" stroke-linejoin="round"/>
<path d="M2.25 14.2965V12.7035C2.25 9.44664 2.25 7.81764 3.26812 6.77026C4.28737 5.72176 5.89163 5.67676 9.099 5.58564C10.6178 5.54289 12.1702 5.51251 13.5 5.51251C14.8298 5.51251 16.3811 5.54289 17.901 5.58564C21.1084 5.67676 22.7126 5.72176 23.7307 6.77026C24.7489 7.81876 24.75 9.44776 24.75 12.7035V14.2954C24.75 17.5534 24.75 19.1813 23.7319 20.2298C22.7126 21.2771 21.1095 21.3233 17.901 21.4133C16.3822 21.4571 14.8298 21.4875 13.5 21.4875C12.1702 21.4875 10.6189 21.4571 9.099 21.4133C5.89163 21.3233 4.28737 21.2783 3.26812 20.2298C2.24887 19.1813 2.25 17.5523 2.25 14.2965Z" stroke="#CD7208" stroke-width="1.3"/>
</svg>
